<?xml version="1.0" encoding="UTF-8"?>
<svg width="180px" height="50px" viewBox="0 0 180 50" version="1.1" xmlns="http://www.w3.org/2000/svg" xmlns:xlink="http://www.w3.org/1999/xlink">
    <!-- Generator: Sketch 47.1 (45422) - http://www.bohemiancoding.com/sketch -->
    <title>cd0bb358c45b584743d8ce4991777c42</title>
    <desc>Created with Sketch.</desc>
    <defs></defs>
    <g id="Page-1" stroke="none" stroke-width="1" fill="none" fill-rule="evenodd">
        <g id="Artboard" transform="translate(-23.000000, -20.000000)">
            <g id="cd0bb358c45b584743d8ce4991777c42" transform="translate(23.000000, 20.000000)">
                <polygon id="Shape" fill="#FFFFFF" fill-rule="nonzero" points="22 0 44 12.4985726 44 37.5014274 22 50 0 37.5014274 0 12.4985726"></polygon>
                <path d="M40.7992045,37.1410733 L23.269888,47 L23.269888,39.3230606 L34.1919564,33.3482997 L40.7992045,37.1410733 Z M42,36.0615037 L42,15.446865 L35.5880966,19.1311105 L35.5880966,32.3829702 L42,36.0615037 L42,36.0615037 Z M4.20079552,37.1410733 L21.730112,47 L21.730112,39.3230606 L10.8022982,33.3482997 L4.20079552,37.1410733 Z M3,36.0615037 L3,15.446865 L9.41190336,19.1311105 L9.41190336,32.3829702 L3,36.0615037 Z M3.75265174,14.110255 L21.730112,4 L21.730112,11.419899 L10.2105186,17.7202444 L10.1185916,17.7716525 L3.75265174,14.110255 Z M41.2473483,14.110255 L23.269888,4 L23.269888,11.419899 L34.7894814,17.7145324 L34.8814084,17.7659405 L41.2473483,14.110255 Z" id="Shape" fill="#8ED6FB" fill-rule="nonzero"></path>
                <path d="M22.2,38 L11,32.0635067 L11,20.3113208 L22.2,26.5411873 L22.2,38 Z M23.8,38 L35,32.0692591 L35,20.3113208 L23.8,26.5411873 L23.8,38 Z M11.758209,18.9537506 L23,13 L34.241791,18.9537506 L23,25.2066268 L11.758209,18.9537506 Z" id="Shape" fill="#1C78C0" fill-rule="nonzero"></path>
                <path d="M73.2840149,41.2461034 L77.9610595,41.2461034 L82.7288104,25.1558655 L78.1708178,25.1558655 L75.3475836,36.5717801 L72.3372677,25.1558655 L68.3915428,25.1558655 L65.352881,36.5717801 L62.5579926,25.1558655 L58,25.1558655 L62.7394052,41.2461034 L67.4164498,41.2461034 L70.3644052,30.9384742 L73.2840149,41.2461034 L73.2840149,41.2461034 Z M82.9725836,33.2469237 C82.9725836,38.076292 86.2210037,41.6480722 91.3289033,41.6480722 C95.2802974,41.6480722 97.4062268,39.2477441 98.0128253,38.1107465 L95.2462825,35.9860541 C94.7927509,36.6636587 93.545539,37.9557014 91.3855948,37.9557014 C89.0442379,37.9557014 87.3434944,36.416735 87.2527881,34.2633306 L98.4380112,34.2633306 C98.4663569,33.9532404 98.4663569,33.6488925 98.4663569,33.3388023 C98.4663569,28.0787531 95.6714684,24.7538966 90.7506506,24.7538966 C86.2210037,24.7538966 82.9725836,28.3831009 82.9725836,33.2469237 L82.9725836,33.2469237 Z M87.3775093,31.4897457 C87.5589219,29.6464315 88.8344796,28.2280558 90.8130112,28.2280558 C92.7291822,28.2280558 94.1237918,29.5200984 94.2144981,31.4897457 L87.3775093,31.4897457 Z M100.048048,41.2461034 L103.999442,41.2461034 L103.999442,39.5865463 C104.424628,40.1091058 106.00632,41.6480722 108.710502,41.6480722 C113.268494,41.6480722 116.488569,38.173913 116.488569,33.2182116 C116.488569,28.2337982 113.512268,24.759639 108.954275,24.759639 C106.221747,24.759639 104.640056,26.2986054 104.243216,26.8498769 L104.243216,19 L100.053717,19 L100.053717,41.2461034 L100.048048,41.2461034 Z M104.118494,33.2469237 C104.118494,30.2321575 105.881599,28.509434 108.188941,28.509434 C110.621004,28.509434 112.259387,30.4503692 112.259387,33.2469237 C112.259387,36.1066448 110.558643,37.8925349 108.188941,37.8925349 C105.637825,37.8925349 104.118494,35.7965546 104.118494,33.2469237 L104.118494,33.2469237 Z M118.121283,47 L122.310781,47 L122.310781,39.5808039 C122.707621,40.1033634 124.283643,41.6423298 127.02184,41.6423298 C131.579833,41.6423298 134.556134,38.1681706 134.556134,33.1837572 C134.556134,28.2625103 131.336059,24.7538966 126.778067,24.7538966 C124.073885,24.7538966 122.492193,26.292863 122.067007,26.8441345 L122.067007,25.1501231 L118.115613,25.1501231 L118.115613,47 L118.121283,47 L118.121283,47 Z M122.191729,33.1550451 C122.191729,30.5996719 123.711059,28.509434 126.262175,28.509434 C128.631877,28.509434 130.332621,30.295324 130.332621,33.1550451 C130.332621,35.9573421 128.694238,37.8925349 126.262175,37.8925349 C123.954833,37.8925349 122.191729,36.1698113 122.191729,33.1550451 L122.191729,33.1550451 Z M135.315799,36.2616899 C135.315799,39.6439705 138.048327,41.6480722 141.268401,41.6480722 C143.093866,41.6480722 144.307063,41.0968007 145.129089,40.2009844 L145.401208,41.2461034 L149.108829,41.2461034 L149.108829,31.0590648 C149.108829,27.4585726 147.589498,24.7538966 142.487268,24.7538966 C140.055204,24.7538966 137.657156,25.6784249 136.228532,26.6603774 L137.810223,29.5545529 C138.995074,28.9401148 140.452045,28.4175554 142.033736,28.4175554 C143.887546,28.4175554 144.919331,29.3707957 144.919331,30.7891715 L144.919331,31.8342904 C144.341078,31.4323216 143.093866,30.9442166 141.483829,30.9442166 C137.776208,30.9384742 135.315799,33.0918786 135.315799,36.2616899 L135.315799,36.2616899 Z M139.505297,36.1353568 C139.505297,34.8146021 140.627788,33.8900738 142.237825,33.8900738 C143.847862,33.8900738 145.004368,34.7227235 145.004368,36.1353568 C145.004368,37.490566 143.847862,38.3519278 142.27184,38.3519278 C140.695818,38.3519278 139.505297,37.461854 139.505297,36.1353568 L139.505297,36.1353568 Z M159.284944,37.8925349 C156.643123,37.8925349 154.760967,35.9515997 154.760967,33.2182116 C154.760967,30.6341263 156.433364,28.509434 159.137546,28.509434 C160.928996,28.509434 162.147862,29.3995078 162.845167,30.0484003 L164.030019,26.4766202 C162.998234,25.6784249 161.354182,24.7538966 159.018494,24.7538966 C154.188383,24.7538966 150.571468,28.3543888 150.571468,33.2469237 C150.571468,38.1394586 154.097677,41.6480722 159.04684,41.6480722 C161.354182,41.6480722 163.088941,40.6661198 163.996004,39.9253486 L162.873513,36.4511895 C162.170539,37.0311731 160.894981,37.8925349 159.284944,37.8925349 L159.284944,37.8925349 Z M165.572026,41.2461034 L169.761524,41.2461034 L169.761524,32.9368335 L175.079182,41.2461034 L180,41.2461034 L173.985037,32.4429861 L179.574814,25.1501231 L174.863755,25.1501231 L169.761524,31.9204266 L169.761524,19 L165.572026,19 L165.572026,41.2461034 L165.572026,41.2461034 Z" id="Shape" fill="#F5FAFA" fill-rule="nonzero"></path>
                <text id="GUI" font-family="Avenir-Black, Avenir" font-size="20" font-weight="700" fill="#F5FAFA">
                    <tspan x="57" y="20">GUI</tspan>
                </text>
            </g>
        </g>
    </g>
</svg>